<svg xmlns="http://www.w3.org/2000/svg" width="150.000000pt" height="150.000000pt" viewBox="0 0 150.000000 150.000000" preserveAspectRatio="xMidYMid meet"><g transform="translate(0.000000,150.000000) scale(0.100000,-0.100000)" fill="#000000" stroke="none"><path d="M140 1409 c0 -69 1 -71 23 -65 12 3 25 6 29 6 4 0 8 15 10 33 l3 32 615 0 615 0 3 -392 2 -393 -492 -2 -493 -3 -3 -28 -3 -27 525 0 526 0 0 455 0 455 -680 0 -680 0 0 -71z"></path><path d="M170 1309 c-32 -13 -78 -56 -96 -91 -8 -15 -14 -50 -14 -79 0 -169 205 -244 317 -116 100 114 14 298 -137 296 -25 0 -56 -5 -70 -10z"></path><path d="M946 1299 c-9 -13 -31 -24 -53 -28 -32 -5 -38 -10 -41 -34 -2 -15 1 -27 7 -27 20 0 11 -47 -14 -74 -13 -14 -34 -26 -46 -26 -13 0 -35 -14 -51 -32 -26 -30 -30 -31 -40 -16 -11 15 -26 10 -154 -58 -126 -66 -147 -74 -196 -74 -52 0 -56 -2 -88 -41 l-33 -42 -36 41 -36 41 -69 -15 c-39 -8 -71 -16 -72 -17 -1 -1 -5 -75 -9 -164 l-8 -163 30 0 c26 0 30 -5 41 -45 7 -28 12 -117 12 -230 l0 -185 -27 -6 c-61 -13 -63 -14 -63 -48 l0 -33 110 0 110 0 0 203 c0 197 1 204 20 204 19 0 20 -7 20 -204 l0 -203 110 0 110 0 0 33 c0 29 -4 35 -27 40 -69 15 -63 -3 -63 208 0 106 3 196 7 200 5 4 13 80 18 169 l10 162 155 81 c104 55 154 87 152 97 -3 18 23 41 38 32 13 -8 13 -42 0 -50 -12 -7 -14 -54 -2 -56 4 -1 20 -2 36 -3 18 -1 35 -12 48 -29 25 -34 41 -34 65 -1 29 40 84 41 120 3 31 -33 60 -38 70 -11 9 23 23 32 54 32 36 0 57 25 41 51 -15 24 -15 54 1 80 10 17 9 22 -7 34 -11 8 -29 12 -40 10 -48 -11 -84 66 -54 114 15 25 -7 55 -35 47 -28 -7 -47 3 -58 30 -11 30 -43 31 -63 3z m44 -15 c0 -17 -22 -14 -28 4 -2 7 3 12 12 12 9 0 16 -7 16 -16z m4 -28 c18 7 76 -52 76 -76 -1 -29 -40 -63 -82 -70 -51 -10 -60 -7 -75 27 -16 34 -16 55 -1 90 16 36 28 44 49 32 10 -5 24 -6 33 -3z m-96 -18 c-6 -18 -28 -21 -28 -4 0 9 7 16 16 16 9 0 14 -5 12 -12z m192 -3 c0 -8 -7 -15 -15 -15 -8 0 -15 7 -15 15 0 8 7 15 15 15 8 0 15 -7 15 -15z m-192 -107 c-6 -18 -28 -21 -28 -4 0 9 7 16 16 16 9 0 14 -5 12 -12z m192 -3 c0 -8 -7 -15 -15 -15 -8 0 -15 7 -15 15 0 8 7 15 15 15 8 0 15 -7 15 -15z m-225 -25 c4 -6 15 -8 24 -5 29 9 50 -4 67 -42 16 -32 16 -36 -3 -71 -17 -33 -24 -37 -59 -38 -56 -2 -74 5 -74 26 0 10 -4 22 -10 25 -5 3 -10 17 -10 31 0 13 5 24 10 24 6 0 10 8 10 18 0 31 32 53 45 32z m258 -9 c4 -1 12 -12 17 -26 5 -14 14 -25 20 -25 13 0 13 -37 -1 -45 -5 -4 -15 -18 -20 -32 -8 -21 -14 -24 -37 -20 -15 3 -34 1 -42 -3 -17 -9 -42 6 -50 30 -5 19 -5 81 0 100 9 27 30 31 113 21z m-323 -16 c0 -8 -4 -15 -9 -15 -13 0 -22 16 -14 24 11 11 23 6 23 -9z m192 0 c0 -5 -5 -11 -11 -13 -6 -2 -11 4 -11 13 0 9 5 15 11 13 6 -2 11 -8 11 -13z m196 -3 c2 -7 -3 -12 -12 -12 -9 0 -16 7 -16 16 0 17 22 14 28 -4z m-383 -101 c7 -12 -12 -24 -25 -16 -11 7 -4 25 10 25 5 0 11 -4 15 -9z m187 -6 c0 -5 -5 -11 -11 -13 -6 -2 -11 4 -11 13 0 9 5 15 11 13 6 -2 11 -8 11 -13z m196 -3 c2 -7 -3 -12 -12 -12 -9 0 -16 7 -16 16 0 17 22 14 28 -4z m-288 -47 c0 -8 -7 -15 -15 -15 -8 0 -15 7 -15 15 0 8 7 15 15 15 8 0 15 -7 15 -15z m190 0 c0 -8 -7 -15 -15 -15 -16 0 -20 12 -8 23 11 12 23 8 23 -8z"></path><path d="M1140 725 l0 -45 120 0 120 0 0 45 0 45 -120 0 -120 0 0 -45z"></path></g></svg>