<svg xmlns="http://www.w3.org/2000/svg" width="150.000000pt" height="150.000000pt" viewBox="0 0 150.000000 150.000000" preserveAspectRatio="xMidYMid meet"><metadata>
Created by potrace 1.16, written by Peter Selinger 2001-2019
</metadata><g transform="translate(0.000000,150.000000) scale(0.100000,-0.100000)" fill="#000000" stroke="none"><path d="M387 1422 l-27 -28 0 -186 0 -186 31 -26 c29 -25 36 -26 145 -26 89 0 114 3 108 13 -4 6 12 -6 35 -28 51 -49 55 -61 4 -14 l-38 34 40 -43 c26 -28 47 -42 65 -42 18 0 39 14 65 42 l40 43 -40 -35 -40 -35 40 43 c38 41 53 53 40 32 -4 -6 35 -10 109 -10 109 0 116 1 145 26 l31 26 0 187 0 187 -28 27 -28 27 -335 0 -335 0 -27 -28z m720 -4 c22 -21 23 -26 23 -208 0 -182 -1 -187 -23 -206 -22 -19 -22 -19 -4 2 15 18 17 44 17 204 0 157 -2 186 -17 202 -15 17 -39 18 -351 18 -298 0 -337 -2 -354 -17 -16 -14 -18 -35 -18 -201 0 -162 2 -188 18 -206 17 -21 17 -21 -5 -2 -22 19 -23 25 -23 204 0 177 1 187 22 209 l21 23 336 0 c330 0 335 0 358 -22z m-157 -209 c0 -10 -4 -20 -9 -23 -4 -3 -6 7 -4 22 3 25 3 26 -6 5 -10 -23 -13 -23 -186 -23 -96 0 -178 -1 -182 -2 -5 -2 -9 11 -10 27 l-2 30 9 -30 c6 -25 8 -26 9 -7 1 22 1 22 182 22 141 0 179 3 173 13 -5 8 -2 8 9 -2 9 -7 17 -22 17 -32z"></path><path d="M715 866 c16 -13 17 -15 3 -10 -15 5 -18 0 -19 -32 l-2 -39 -7 40 c-7 37 -7 38 -9 9 -1 -30 -6 -34 -81 -65 -52 -21 -76 -36 -68 -41 10 -6 10 -8 1 -8 -7 0 -13 -8 -13 -17 0 -13 32 -32 115 -69 l115 -52 115 51 c104 46 115 54 115 77 0 23 -9 30 -80 60 -74 31 -80 36 -81 64 -2 28 -3 27 -9 -9 l-7 -40 -3 40 c-1 22 -2 44 -1 48 1 5 -4 7 -11 5 -7 -3 -13 -10 -13 -15 0 -6 -4 -15 -9 -20 -5 -4 -6 -3 -3 3 4 7 -1 14 -11 17 -9 2 -26 8 -37 12 l-20 8 20 -17z"></path><path d="M360 663 c-59 -27 -73 -40 -65 -62 5 -12 3 -12 -12 0 -13 9 -12 7 2 -8 11 -11 68 -42 126 -68 l105 -47 65 31 c35 17 53 29 39 26 -24 -4 -24 -4 3 7 26 12 37 28 17 28 -5 0 -9 4 -7 10 1 7 -213 115 -217 109 -1 0 -26 -12 -56 -26z"></path><path d="M976 639 c-112 -50 -140 -66 -96 -55 25 6 25 6 3 -5 -41 -21 -28 -44 41 -73 l65 -28 105 48 c58 27 106 54 106 62 0 7 4 11 9 7 5 -3 13 0 17 6 4 8 3 9 -4 5 -7 -4 -12 -4 -12 1 -1 19 -19 34 -71 56 l-54 25 -109 -49z"></path><path d="M84 540 l-81 -38 -1 -62 0 -61 71 -33 c68 -31 105 -37 90 -13 -4 6 -1 7 6 2 15 -9 113 34 105 46 -3 5 1 6 9 4 18 -7 119 38 137 61 14 18 14 18 -3 5 -15 -12 -17 -12 -12 0 2 8 1 19 -3 26 -10 15 -200 103 -221 102 -9 0 -53 -18 -97 -39z"></path><path d="M1205 534 c-119 -54 -139 -75 -92 -94 20 -8 20 -9 2 -10 -11 0 38 -27 110 -59 l130 -58 70 32 70 32 2 62 1 63 -85 39 c-47 21 -90 39 -96 39 -7 0 -57 -21 -112 -46z"></path><path d="M688 513 c-31 -14 -59 -31 -62 -38 -11 -31 7 -53 66 -79 l61 -26 58 26 c92 41 91 77 -2 118 -33 14 -61 26 -62 25 -1 0 -28 -12 -59 -26z"></path><path d="M378 373 c-135 -60 -153 -78 -100 -101 26 -11 26 -11 2 -7 -14 3 2 -8 35 -25 33 -16 67 -29 75 -30 8 0 70 25 138 57 119 55 134 68 114 100 -8 13 -110 63 -127 63 -5 -1 -67 -26 -137 -57z"></path><path d="M918 403 c-60 -27 -80 -55 -57 -78 15 -14 232 -115 248 -115 5 0 40 14 78 31 41 18 56 28 38 25 l-30 -5 28 12 c53 22 34 41 -99 101 -69 31 -131 56 -137 55 -7 0 -38 -12 -69 -26z"></path><path d="M625 269 c-131 -61 -143 -70 -120 -93 12 -12 13 -16 3 -16 -16 -1 222 -110 240 -110 28 0 251 104 239 112 -8 5 -6 8 6 8 9 0 17 5 17 10 0 6 -5 10 -11 10 -5 0 -7 5 -4 10 7 11 -216 120 -244 120 -9 -1 -65 -24 -126 -51z"></path></g></svg>