<svg xmlns="http://www.w3.org/2000/svg" width="150.000000pt" height="150.000000pt" viewBox="0 0 150.000000 150.000000" preserveAspectRatio="xMidYMid meet"><metadata>
Created by potrace 1.16, written by Peter Selinger 2001-2019
</metadata><g transform="translate(0.000000,150.000000) scale(0.100000,-0.100000)" fill="#000000" stroke="none"><path d="M3 1406 c3 -86 6 -98 36 -145 38 -59 88 -104 107 -97 8 3 13 0 11 -6 -4 -22 84 -40 170 -35 56 3 84 1 88 -7 3 -6 3 3 0 19 l-4 30 15 -34 c8 -18 13 -38 10 -45 -2 -6 -5 -4 -5 4 -1 13 -11 15 -62 10 -53 -5 -66 -10 -90 -38 -39 -44 -41 -108 -4 -142 21 -20 25 -33 25 -80 0 -51 -3 -58 -26 -68 -14 -7 -23 -16 -19 -21 3 -5 0 -13 -6 -17 -8 -4 -9 -3 -5 4 13 21 -10 13 -30 -10 -19 -22 -19 -23 1 -8 11 8 -5 -13 -37 -47 -78 -86 -102 -150 -103 -273 0 -86 3 -101 32 -162 17 -37 53 -91 79 -120 l47 -53 -49 50 c-27 28 -57 61 -67 75 l-18 25 12 -25 c14 -29 118 -140 131 -140 5 0 6 5 2 12 -4 7 -3 8 5 4 6 -4 9 -11 6 -16 -3 -5 11 -18 32 -28 56 -29 320 -29 376 0 21 10 35 23 32 28 -3 5 0 12 6 16 8 4 9 3 5 -4 -11 -18 10 -14 25 5 12 15 12 16 -1 8 -8 -5 10 19 42 53 67 73 98 146 105 248 6 78 -13 164 -49 222 -11 18 -17 36 -14 39 7 7 -93 113 -107 113 -4 0 -5 -5 -1 -12 4 -7 3 -8 -5 -4 -6 4 -9 11 -6 16 3 5 -3 14 -14 19 -26 14 -34 14 -25 -1 5 -9 2 -9 -9 1 -12 10 -17 29 -17 70 0 48 4 61 25 81 30 28 34 91 9 130 l-16 25 21 -24 c12 -13 21 -19 21 -14 0 5 -11 20 -25 33 -33 31 -144 46 -146 20 0 -8 -3 -10 -5 -4 -3 7 2 27 10 45 l15 34 -4 -30 c-3 -16 -3 -25 1 -18 4 8 31 11 92 8 l87 -4 -78 8 c-43 5 -80 10 -82 12 -2 2 40 4 93 4 75 0 105 4 131 18 18 10 30 13 26 7 -5 -8 -3 -11 4 -9 7 3 13 9 13 14 0 6 18 29 40 53 59 65 107 197 88 246 -8 22 -13 23 -132 22 -67 -1 -132 -5 -143 -10 -16 -6 -17 -6 -5 4 13 9 12 11 -5 8 -11 -2 -20 -8 -20 -15 0 -6 -4 -15 -9 -20 -5 -5 -6 -3 -2 5 17 28 -14 9 -56 -36 -55 -59 -66 -78 -93 -167 l-21 -70 -13 50 c-19 75 -45 128 -87 176 -34 39 -35 41 -5 14 43 -40 70 -84 92 -153 10 -32 18 -49 18 -40 2 41 -43 131 -91 183 -45 50 -80 74 -62 43 4 -8 3 -10 -2 -5 -5 5 -9 14 -9 20 0 16 -210 22 -260 8 -20 -5 -33 -6 -30 0 4 5 1 9 -5 9 -8 0 -10 -29 -7 -94z m547 -590 c0 -44 5 -60 26 -86 34 -40 107 -80 88 -47 -5 8 -2 7 9 -2 10 -8 15 -16 12 -19 -3 -3 2 -14 12 -24 15 -17 15 -19 -3 -39 -26 -30 -75 -49 -124 -49 l-40 0 0 160 c0 100 4 160 10 160 6 0 10 -24 10 -54z m-370 -255 c-13 -25 -13 -42 1 -18 5 9 20 17 32 18 21 0 21 1 2 9 -25 11 -8 12 36 3 33 -7 33 -7 9 -14 l-25 -7 24 -1 c36 -1 161 -62 161 -78 0 -9 -7 -12 -24 -7 -24 6 -79 -16 -92 -37 -5 -8 -3 -9 7 -4 12 8 12 6 0 -8 -15 -19 -26 -23 -16 -7 4 7 -2 9 -17 5 -13 -3 -37 -1 -53 5 -25 9 -31 8 -49 -12 l-21 -22 21 17 c17 14 27 15 48 8 14 -6 26 -13 26 -16 0 -2 -12 0 -27 6 -34 13 -64 -11 -47 -38 13 -21 81 -45 108 -38 19 5 19 5 3 -5 -18 -12 -78 1 -104 23 -9 6 -13 6 -13 -1 0 -13 87 -41 116 -38 11 1 33 12 49 24 15 12 35 22 44 22 10 0 22 5 28 11 8 8 13 8 18 0 3 -6 3 -11 -2 -10 -8 2 -22 -2 -70 -21 -31 -13 -85 -90 -79 -114 4 -15 2 -16 -7 -7 -9 9 -7 21 11 54 20 37 21 39 3 17 -31 -37 -35 -59 -15 -81 26 -29 49 -23 86 20 63 74 124 57 73 -20 -14 -21 -25 -45 -25 -52 0 -21 36 -49 57 -45 28 5 92 107 95 150 1 20 6 34 10 32 5 -3 6 -9 3 -14 -3 -4 2 -13 9 -20 8 -6 18 -24 21 -40 8 -34 37 -63 61 -58 26 5 29 60 5 113 -11 24 -17 44 -13 44 18 -3 26 2 15 9 -8 5 0 8 20 8 75 0 131 65 63 72 -16 2 -25 7 -19 10 6 4 -9 7 -32 7 -46 0 -48 -10 -5 -18 l25 -4 -26 -2 c-15 0 -32 6 -39 14 -7 8 -9 15 -5 15 4 0 2 6 -4 14 -10 12 -4 18 34 35 26 11 44 25 41 30 -4 5 -1 13 5 17 8 4 9 3 5 -4 -4 -7 -3 -12 3 -12 11 0 24 19 28 39 5 36 22 30 39 -16 13 -33 19 -73 19 -128 -1 -93 -28 -164 -90 -230 l-37 -40 36 46 c61 79 80 133 80 229 1 52 -4 93 -12 105 -12 19 -12 18 -5 -5 4 -14 7 -62 6 -107 -3 -100 -27 -163 -83 -218 -22 -21 -37 -42 -34 -46 2 -4 -1 -11 -7 -15 -8 -5 -9 -3 -4 6 5 8 3 11 -6 8 -8 -3 -13 -11 -11 -17 1 -7 -2 -10 -7 -6 -6 3 -33 -2 -61 -11 -69 -22 -189 -16 -247 14 -48 25 -57 27 -47 10 4 -7 3 -8 -5 -4 -6 4 -9 11 -7 15 3 4 -11 23 -31 42 -19 19 -46 57 -59 84 -13 28 -24 44 -24 37 0 -18 27 -70 62 -117 l30 -40 -32 35 c-76 83 -106 209 -75 316 17 61 32 94 41 94 2 0 0 -9 -6 -19z"></path><path d="M779 1127 c-51 -34 -88 -95 -89 -143 0 -30 -6 -47 -25 -64 -22 -21 -25 -31 -23 -84 l2 -61 3 59 c3 49 10 66 34 93 20 24 29 44 29 69 0 38 19 83 46 104 9 8 5 -3 -10 -24 -34 -50 -34 -101 -1 -150 14 -21 20 -34 14 -31 -6 4 -19 21 -30 39 -10 17 -19 26 -19 19 0 -18 49 -72 81 -88 15 -8 45 -14 66 -14 37 2 36 2 -9 8 -27 4 -54 13 -60 20 -11 11 -9 11 9 2 12 -6 37 -11 57 -11 19 0 37 -4 41 -9 3 -5 -6 -31 -20 -57 -28 -52 -32 -112 -13 -176 15 -51 91 -136 143 -159 40 -18 140 -26 148 -11 3 4 -26 7 -64 7 -43 0 -73 5 -81 13 -11 11 -8 11 17 2 16 -6 53 -10 83 -9 63 3 91 -16 73 -49 -25 -47 -9 -126 37 -177 l27 -30 -29 25 c-50 44 -72 131 -45 182 6 11 7 24 2 29 -5 5 -10 1 -11 -9 -1 -9 -5 -36 -8 -59 -8 -59 10 -105 61 -152 56 -51 111 -67 168 -48 23 7 42 19 42 24 0 6 4 15 9 20 5 5 6 3 2 -5 -14 -24 12 -12 37 17 22 27 24 38 24 125 l1 96 -43 39 c-28 25 -57 42 -82 47 -21 3 -44 12 -52 18 -8 6 -16 10 -18 9 -6 -5 -4 2 8 32 20 45 17 153 -4 194 -16 33 -16 36 -1 50 9 9 14 11 11 5 -10 -18 72 -38 106 -25 15 6 27 13 27 16 0 2 -12 0 -27 -6 -28 -10 -79 -4 -88 12 -4 5 6 4 21 -1 15 -6 41 -8 58 -4 17 5 35 7 40 5 11 -3 46 29 46 42 0 6 -7 2 -16 -9 -14 -16 -14 -15 1 9 11 20 15 46 13 88 -2 50 -7 64 -30 86 -37 35 -102 41 -146 14 -52 -33 -73 -77 -69 -139 3 -30 0 -55 -6 -59 -6 -3 -7 -1 -3 6 11 17 -90 61 -140 61 -23 0 -61 -7 -84 -15 -39 -14 -42 -14 -34 3 19 43 16 97 -8 132 -53 78 -134 101 -199 57z m236 -299 c-1 -13 -11 -39 -23 -58 -29 -46 -27 -113 4 -118 25 -4 49 23 58 63 5 22 4 26 -4 15 -5 -8 -10 -23 -10 -32 0 -9 -4 -19 -9 -23 -16 -9 7 58 25 75 12 10 14 11 9 1 -5 -9 -3 -12 6 -9 8 2 20 17 27 32 15 30 3 55 -27 57 -10 0 -6 4 9 10 23 9 43 8 94 -8 14 -4 16 -2 11 8 -5 8 8 -1 28 -20 45 -42 61 -88 52 -147 -6 -43 -17 -55 -31 -32 -4 7 -3 8 4 4 17 -10 25 55 13 101 -6 21 -23 50 -38 64 l-27 24 26 -33 c26 -31 46 -110 34 -131 -4 -5 -22 -7 -40 -4 -29 4 -40 0 -71 -29 -24 -22 -37 -43 -38 -61 -2 -29 -6 -30 -71 -10 -13 4 -17 1 -11 -8 4 -8 -11 5 -33 27 -67 69 -69 154 -5 225 19 21 36 39 38 39 1 0 1 -10 0 -22z m380 -388 c-3 -4 2 -13 10 -20 13 -11 15 -10 10 6 -4 12 0 9 9 -6 24 -40 20 -94 -10 -127 -14 -15 -23 -23 -20 -16 6 10 -39 10 -97 -2 -9 -2 -15 1 -12 5 6 9 -13 25 -30 25 -17 0 -29 63 -17 88 10 20 10 19 6 -8 -3 -16 -1 -41 4 -54 7 -19 8 -10 7 37 -1 35 3 66 9 70 6 5 36 8 68 8 31 -1 54 3 50 8 -3 5 0 6 7 2 6 -4 9 -11 6 -16z"></path></g></svg>