<svg xmlns="http://www.w3.org/2000/svg" width="150.000000pt" height="150.000000pt" viewBox="0 0 150.000000 150.000000" preserveAspectRatio="xMidYMid meet"><metadata>
Created by potrace 1.16, written by Peter Selinger 2001-2019
</metadata><g transform="translate(0.000000,150.000000) scale(0.100000,-0.100000)" fill="#000000" stroke="none"><path d="M715 1370 c-16 -18 -33 -20 -218 -22 l-200 -3 -59 -175 c-32 -96 -56 -180 -54 -187 3 -6 20 -13 38 -16 l33 -4 -31 -1 c-61 -4 -61 12 0 195 31 91 52 163 47 157 -5 -5 -32 -80 -61 -167 -50 -152 -51 -159 -34 -178 9 -10 30 -19 46 -19 l28 0 0 -170 0 -169 -27 -15 c-37 -19 -96 -82 -119 -126 -22 -41 -25 -154 -6 -185 11 -18 11 -17 5 10 -24 93 3 191 69 250 l33 30 -31 -35 c-52 -58 -68 -98 -68 -170 0 -74 16 -114 73 -174 20 -21 30 -35 22 -31 -10 6 -12 4 -6 -4 4 -7 26 -22 49 -32 39 -18 72 -18 596 -16 l555 2 -567 5 c-441 4 -570 8 -580 18 -10 10 -7 11 18 2 20 -7 217 -10 589 -8 l560 3 0 70 c0 49 -4 70 -12 71 -7 1 -23 3 -35 4 -22 2 -22 2 2 10 24 8 24 8 3 9 -21 1 -23 6 -23 66 0 47 4 65 13 65 8 0 23 10 35 23 18 19 22 35 22 85 0 33 -3 63 -7 65 -5 3 -6 -24 -5 -60 4 -68 -12 -103 -47 -103 -10 0 -7 5 9 13 21 10 26 21 28 62 2 28 1 65 -3 82 l-6 33 -69 0 -70 0 0 160 0 160 28 0 c16 0 37 9 46 19 17 19 16 24 -15 120 -18 55 -35 98 -37 96 -2 -2 10 -47 28 -100 36 -107 32 -126 -24 -123 l-31 1 33 4 c18 3 35 10 38 16 2 7 -22 91 -54 187 l-59 175 -200 3 c-185 2 -202 4 -218 22 -10 11 -26 20 -35 20 -9 0 -25 -9 -35 -20z m-411 -202 c-19 -56 -33 -106 -31 -111 1 -4 17 37 35 92 l33 101 140 0 c76 0 139 -2 139 -5 0 -2 -32 -50 -72 -105 l-72 -101 -108 3 c-88 2 -108 0 -108 -11 0 -8 -3 -12 -6 -8 -5 5 59 215 73 240 15 26 7 -6 -23 -95z m526 -5 c119 -169 148 -203 193 -223 24 -11 31 -17 17 -14 -17 3 -35 -2 -53 -17 -26 -19 -28 -26 -26 -81 1 -32 6 -61 11 -64 4 -3 8 0 8 5 0 6 21 11 48 11 27 0 52 3 56 8 4 4 13 7 19 7 7 0 13 19 15 43 3 38 -1 47 -31 77 l-35 35 49 0 49 0 0 -160 0 -160 -28 0 c-26 0 -27 2 -23 46 2 25 -2 51 -8 57 -6 6 -11 15 -11 21 0 5 7 1 15 -10 8 -10 15 -39 16 -64 l2 -45 4 39 c5 43 -23 109 -41 98 -6 -3 -26 -5 -46 -3 -52 3 -73 -23 -69 -87 4 -48 4 -48 -28 -50 l-33 -3 0 83 c0 72 -3 86 -26 120 -15 21 -31 38 -36 38 -6 0 4 -16 21 -35 30 -35 31 -37 29 -133 l-2 -97 -5 102 c-6 95 -8 104 -35 132 -17 17 -26 31 -21 31 5 0 4 5 -1 10 -14 14 -76 31 -69 19 4 -5 15 -9 25 -9 10 0 21 -3 23 -7 3 -5 -21 -8 -53 -8 -32 0 -56 3 -53 8 2 4 14 8 26 8 16 1 17 3 5 6 -19 5 -63 -15 -54 -25 4 -3 -6 -19 -21 -34 -26 -27 -28 -37 -34 -131 l-5 -102 -2 97 c-2 96 -1 98 29 133 17 19 27 35 21 35 -5 0 -21 -17 -36 -38 -23 -34 -26 -48 -26 -120 l0 -83 -32 3 c-33 2 -33 2 -29 50 4 64 -17 90 -69 87 -20 -2 -40 0 -46 3 -18 11 -46 -55 -41 -98 l4 -39 2 45 c1 25 8 54 16 64 8 11 15 15 15 10 0 -6 -5 -15 -11 -21 -6 -6 -10 -32 -8 -57 4 -44 3 -46 -23 -46 l-28 0 0 160 0 160 49 0 49 0 -35 -35 c-30 -30 -34 -39 -31 -77 2 -24 8 -43 15 -43 6 0 15 -3 19 -7 4 -5 29 -8 56 -8 27 0 48 -5 48 -11 0 -5 4 -8 8 -5 5 3 10 32 11 64 2 55 0 62 -26 81 -18 15 -36 20 -53 17 -14 -3 -7 3 17 14 45 20 74 54 193 223 41 59 77 107 80 107 3 0 39 -48 80 -107z m385 -21 c20 -62 34 -116 31 -119 -3 -4 -6 0 -6 8 0 11 -20 13 -108 11 l-108 -3 -72 101 c-40 55 -72 103 -72 105 0 3 63 5 139 5 l140 0 33 -101 c18 -55 34 -96 35 -92 2 5 -13 55 -32 113 -19 57 -31 100 -26 95 5 -6 25 -61 46 -123z m-508 -329 c-3 -5 17 -8 43 -8 29 0 46 4 43 10 -2 6 5 -1 16 -14 18 -20 21 -35 19 -110 l-2 -86 -5 92 c-8 116 -17 130 -12 17 l3 -84 -62 0 -62 0 3 84 c5 113 -4 99 -12 -17 l-5 -92 -2 85 c-2 64 2 91 14 108 14 20 32 33 21 15z m113 -263 l-505 -5 505 -5 505 -5 -490 -3 c-269 -1 -501 0 -514 3 -77 19 46 25 504 22 l500 -2 -505 -5z m-576 -32 c-5 -8 -2 -9 12 -4 24 10 64 19 45 10 -11 -5 -11 -8 0 -16 10 -6 7 -7 -10 -3 -15 5 -21 3 -17 -3 3 -6 1 -14 -5 -18 -8 -4 -9 -3 -5 4 4 7 3 12 -2 12 -14 0 -33 -26 -25 -33 3 -4 1 -13 -6 -21 -34 -41 -32 -109 6 -165 10 -14 18 -30 18 -35 0 -5 6 -11 14 -14 9 -3 11 0 6 8 -6 10 -4 11 6 4 8 -5 48 -12 89 -15 l75 -6 -75 -3 -75 -4 75 -6 75 -6 -75 -4 -75 -4 75 -6 75 -7 -75 1 c-54 1 -74 4 -73 14 2 6 -1 12 -6 12 -5 0 -17 3 -27 7 -12 5 -15 3 -9 -6 6 -10 3 -11 -11 -3 -80 43 -109 172 -59 259 27 44 39 56 28 26 -6 -16 -5 -16 10 -5 9 8 16 17 15 20 -1 13 2 22 8 22 3 0 2 -5 -2 -12z m1016 -78 c0 -12 -717 -12 -850 -1 -52 5 96 9 383 9 306 1 467 -1 467 -8z m-963 -7 c-3 -5 34 -6 81 -5 l87 4 -3 -73 c-1 -40 -5 -75 -8 -78 -4 -3 -5 13 -2 36 2 23 0 39 -4 37 -5 -3 -8 -17 -8 -31 0 -25 -1 -25 -69 -21 -45 2 -68 0 -64 -7 2 -5 -7 3 -21 18 -30 32 -33 72 -10 105 14 20 32 33 21 15z m963 -63 c0 -6 -136 -10 -389 -10 -249 0 -392 4 -396 10 -4 7 128 10 389 10 257 0 396 -4 396 -10z"></path><path d="M679 1131 c-29 -29 -39 -47 -39 -71 0 -24 10 -42 39 -71 29 -29 47 -39 71 -39 46 0 110 64 110 110 0 24 -10 42 -39 71 -29 29 -47 39 -71 39 -24 0 -42 -10 -71 -39z"></path></g></svg>