<svg xmlns="http://www.w3.org/2000/svg" width="150.000000pt" height="150.000000pt" viewBox="0 0 150.000000 150.000000" preserveAspectRatio="xMidYMid meet"><metadata>
Created by potrace 1.16, written by Peter Selinger 2001-2019
</metadata><g transform="translate(0.000000,150.000000) scale(0.100000,-0.100000)" fill="#000000" stroke="none"><path d="M23 1455 c9 -66 29 -97 120 -192 l81 -84 -39 -37 -40 -37 35 37 34 38 -76 77 c-91 94 -107 119 -125 186 -13 51 -13 51 -8 8 8 -63 27 -93 118 -187 l80 -85 -35 -37 c-51 -53 -105 -128 -136 -186 -25 -48 -26 -59 -28 -206 -1 -151 -1 -156 27 -211 31 -62 83 -135 137 -191 l35 -37 -80 -85 c-91 -94 -110 -124 -118 -187 -5 -43 -5 -43 8 8 18 67 35 92 125 185 l74 76 -65 76 c-60 71 -137 198 -137 226 0 7 18 -23 40 -67 21 -43 69 -114 105 -157 l67 -77 -80 -84 c-88 -91 -108 -122 -118 -184 -6 -40 -6 -41 23 -41 25 0 31 5 40 38 l11 37 -4 -40 c-3 -29 -2 -33 4 -15 l8 25 162 3 162 2 1 -27 c2 -22 3 -20 9 12 l7 40 2 -37 c1 -37 2 -38 37 -38 36 0 37 0 31 34 -10 61 -40 109 -120 193 l-79 82 66 78 c77 91 119 166 141 248 41 159 -3 304 -141 468 l-66 78 79 82 c84 87 108 128 119 196 l7 42 -34 -3 c-31 -3 -34 -6 -40 -43 l-6 -40 -3 40 c-2 33 -4 35 -7 12 l-4 -27 -162 2 -161 3 -8 25 c-5 18 -6 14 -3 -15 3 -29 2 -35 -5 -20 -5 11 -9 30 -9 43 -1 18 -7 22 -32 22 l-32 0 6 -45z"></path><path d="M1170 1445 c-39 -39 -48 -53 -38 -63 9 -9 5 -19 -18 -44 l-29 -33 33 30 c20 18 30 35 27 45 -5 12 -4 13 6 2 11 -10 5 -20 -26 -52 -36 -37 -40 -39 -57 -24 -9 9 -15 20 -13 24 3 4 -1 13 -8 18 -10 9 -52 -28 -178 -156 -90 -91 -148 -153 -129 -137 l35 30 -29 -32 c-18 -21 -34 -29 -45 -25 -14 5 -14 4 -1 -14 9 -12 5 -11 -13 5 -30 27 -37 41 -9 20 13 -11 13 -9 -2 9 l-20 23 -68 -68 c-37 -37 -69 -65 -71 -62 -2 2 -15 24 -29 49 -14 25 -54 78 -88 119 l-62 73 69 72 c82 83 110 121 117 162 l6 29 -11 -30 c-18 -47 -46 -84 -122 -162 l-70 -71 63 -74 c75 -89 108 -143 138 -228 13 -36 20 -49 16 -30 -7 37 -13 90 -10 90 0 0 75 -75 166 -167 l165 -168 -165 160 -165 160 167 -170 168 -170 67 67 68 68 -25 22 -24 23 19 -23 19 -23 -64 -62 -65 -62 60 62 59 63 -24 25 -24 26 62 62 62 61 34 -33 c35 -34 106 -157 106 -182 0 -8 -18 22 -39 66 -22 44 -52 91 -67 105 l-28 25 29 -35 c15 -19 41 -62 56 -94 28 -59 28 -60 9 -73 -27 -19 -50 -66 -50 -102 0 -34 55 -105 75 -97 8 3 12 -2 11 -12 -3 -15 -24 -17 -217 -17 l-214 -1 215 6 215 6 -208 2 c-223 2 -253 -3 -292 -49 l-20 -24 24 20 24 20 -18 -27 c-9 -15 -21 -25 -26 -22 -12 7 -29 -40 -28 -74 1 -19 4 -14 10 17 12 60 21 65 13 8 l-7 -47 149 -2 149 -2 -145 -6 -145 -6 143 -2 c135 -2 142 -3 142 -22 0 -19 -7 -20 -165 -20 -185 0 -200 -4 -255 -66 -30 -35 -33 -36 -43 -18 -6 10 -44 53 -84 96 l-75 76 67 79 c69 82 131 193 141 253 3 22 -4 10 -18 -30 -30 -85 -63 -139 -138 -228 l-62 -73 79 -82 c43 -45 86 -98 95 -117 14 -29 18 -31 18 -13 0 13 14 37 31 55 l31 33 -26 -33 c-21 -28 -26 -44 -26 -93 l0 -59 485 0 486 0 -3 76 c-2 72 -4 77 -35 105 -19 16 -39 29 -46 29 -33 1 -38 16 -18 61 12 24 21 51 21 59 0 8 -11 -11 -24 -43 -23 -54 -36 -79 -36 -65 0 3 9 25 19 49 26 60 51 185 51 259 0 152 -72 343 -171 453 l-52 58 33 34 c18 19 38 31 44 28 5 -4 0 8 -13 26 -13 18 -26 30 -29 27 -3 -3 3 -16 14 -28 l18 -23 -24 23 -25 22 41 41 c38 37 42 39 55 23 12 -16 12 -17 -1 -9 -12 6 -13 5 -3 -5 11 -12 18 -9 43 15 16 15 27 33 23 38 -3 6 -2 7 4 4 5 -3 25 9 44 29 l33 34 -88 89 c-110 111 -129 114 -206 36z m-52 -268 l72 -72 -148 -148 -147 -147 -75 75 -75 75 145 145 c80 80 147 145 150 145 3 0 38 -33 78 -73z m140 -291 c25 -38 59 -107 75 -155 27 -75 31 -100 31 -196 1 -80 -4 -126 -18 -170 l-18 -60 -12 30 c-7 17 -20 36 -29 43 -23 19 -11 98 20 135 25 30 32 94 12 114 -6 6 -12 19 -13 29 -2 10 -9 20 -16 22 -9 3 -10 0 -4 -9 7 -12 5 -12 -9 0 -9 7 -17 19 -17 25 0 26 -61 136 -104 190 l-48 58 28 29 28 29 24 -23 c13 -12 44 -53 70 -91z m-65 -526 c18 -22 43 -28 31 -7 -5 8 -2 8 9 -2 19 -15 23 -26 5 -15 -8 5 -9 2 -3 -12 5 -10 10 -38 13 -61 l4 -43 -63 -2 -64 -1 65 -7 65 -7 -62 -1 c-63 -2 -63 -2 -63 -32 l0 -30 133 -2 132 -2 -135 -6 -135 -6 142 0 c85 1 141 -3 140 -9 -1 -5 5 -9 13 -10 9 0 16 -11 17 -30 l2 -30 -9 30 -8 30 -1 -27 -1 -28 -405 0 -405 0 0 25 c0 14 8 29 19 35 12 6 113 11 243 12 l223 2 -230 6 -230 6 228 2 227 2 0 30 c0 26 -4 30 -27 31 l-28 1 30 8 c17 4 24 8 18 9 -16 1 -17 74 -2 104 10 18 9 20 -2 9 -7 -7 -16 -36 -20 -65 l-6 -52 -2 47 c-1 38 4 52 25 75 14 15 22 22 18 14 -6 -11 -3 -13 12 -6 10 4 33 11 49 16 26 8 25 8 -10 4 -28 -3 -35 -2 -25 5 24 16 54 11 73 -10z"></path><path d="M895 1100 l-140 -140 70 -70 70 -70 142 142 143 143 -67 67 c-37 38 -70 68 -73 68 -3 0 -68 -63 -145 -140z m213 67 l62 -62 -138 -138 -137 -137 -65 65 -65 65 135 135 c74 74 137 135 140 135 3 0 34 -28 68 -63z"></path></g></svg>