<svg xmlns="http://www.w3.org/2000/svg" width="150.000000pt" height="150.000000pt" viewBox="0 0 150.000000 150.000000" preserveAspectRatio="xMidYMid meet"><metadata>
Created by potrace 1.16, written by Peter Selinger 2001-2019
</metadata><g transform="translate(0.000000,150.000000) scale(0.100000,-0.100000)" fill="#000000" stroke="none"><path d="M197 1479 c-101 -53 -137 -187 -71 -264 l26 -30 -22 33 c-41 61 -36 144 11 202 15 20 14 14 -6 -24 -14 -27 -25 -62 -25 -78 0 -33 24 -94 46 -119 13 -14 13 -18 -3 -30 -11 -9 -14 -10 -9 -1 11 18 -9 15 -25 -5 -12 -15 -12 -16 1 -8 8 4 -2 -10 -22 -31 -59 -63 -78 -114 -78 -221 l0 -93 108 -2 107 -2 -110 -6 c-77 -4 -91 -7 -48 -8 64 -2 68 -6 45 -49 -17 -31 -15 -104 4 -133 l16 -25 -21 24 c-26 29 -28 105 -5 141 l16 25 -21 -24 c-15 -17 -21 -37 -21 -73 0 -45 4 -53 38 -84 20 -19 48 -45 60 -57 l24 -22 -13 28 c-7 15 -18 27 -25 27 -7 0 -16 4 -19 10 -4 7 2 7 18 1 14 -6 28 -7 33 -3 4 4 4 1 0 -5 -4 -7 -3 -21 3 -31 11 -22 5 -33 -29 -50 l-25 -12 25 5 c25 5 25 5 3 -6 -21 -11 -23 -19 -23 -104 0 -85 2 -93 23 -104 22 -11 22 -11 -3 -6 l-25 5 25 -12 c34 -17 40 -28 28 -51 -8 -17 0 -30 53 -86 l64 -66 -69 66 c-63 61 -67 68 -57 90 12 23 11 23 -3 5 -9 -11 -16 -22 -16 -26 0 -3 33 -38 74 -79 l73 -73 31 16 c23 12 32 13 35 3 3 -7 6 -5 6 5 1 9 -4 19 -9 21 -6 3 -5 4 2 3 7 -1 17 -21 22 -44 l10 -42 92 0 92 0 7 40 c4 22 11 42 15 45 5 3 5 -9 0 -27 -6 -17 -8 -34 -5 -36 2 -2 7 7 10 21 4 14 13 28 21 31 8 3 12 2 9 -4 -3 -5 4 -14 16 -21 20 -10 29 -4 96 64 l75 74 -17 29 c-14 26 -15 17 0 -19 3 -7 -26 -44 -65 -82 -56 -56 -72 -67 -82 -57 -11 11 -10 12 2 7 10 -3 37 17 79 59 l63 63 -17 33 c-13 24 -14 35 -5 44 8 8 10 7 5 -6 -6 -16 -4 -16 24 -7 36 13 42 23 9 15 l-23 -6 23 11 c12 7 22 21 23 33 1 19 2 18 9 -4 4 -14 8 -19 9 -12 1 6 5 12 11 12 5 0 11 -57 13 -138 l3 -137 0 147 c-1 80 2 144 7 141 4 -2 7 -69 7 -149 l0 -144 275 0 275 0 0 138 c0 114 -4 144 -20 180 -22 50 -18 56 7 10 14 -26 19 -66 24 -183 l5 -150 2 140 c2 161 -7 192 -79 269 -38 42 -71 63 -53 34 4 -7 3 -8 -5 -4 -6 4 -9 11 -6 16 3 5 -7 16 -23 24 -23 12 -32 12 -43 3 -7 -7 -4 -1 8 13 62 72 58 180 -11 260 l-21 25 24 -20 c59 -50 79 -156 42 -228 -10 -20 -14 -34 -9 -31 18 12 38 73 38 119 0 53 -19 96 -63 143 -31 32 -55 44 -41 20 4 -8 3 -10 -2 -5 -5 5 -9 14 -9 20 0 14 -98 19 -143 7 -19 -5 -30 -5 -27 1 8 12 -2 11 -26 -2 -11 -5 -17 -14 -15 -18 3 -4 -6 -19 -20 -32 -39 -36 -56 -76 -56 -135 0 -37 6 -64 21 -89 20 -34 31 -65 12 -36 -6 9 -33 13 -95 13 -82 0 -85 1 -75 19 5 11 7 25 3 32 -4 6 -4 9 0 5 5 -4 19 -3 33 3 16 6 22 6 18 -1 -3 -6 -12 -10 -20 -10 -7 0 -16 -7 -19 -16 -9 -24 -7 -25 12 -9 9 9 34 29 54 46 20 17 39 43 43 59 8 35 -9 93 -33 112 -14 12 -14 10 1 -12 25 -35 23 -111 -4 -141 l-21 -24 16 25 c19 29 21 102 4 133 -25 45 -21 49 47 45 35 -2 61 0 57 4 -4 4 -54 9 -112 11 l-105 3 108 2 107 2 0 95 c0 111 -11 145 -68 207 -22 24 -40 47 -40 53 0 5 -6 11 -13 14 -8 2 -9 -1 -3 -10 6 -12 5 -12 -9 0 -17 13 -17 15 2 35 42 45 52 110 26 174 -13 33 -13 35 0 18 8 -11 15 -24 15 -30 0 -5 3 -7 6 -4 8 9 -21 60 -48 84 -95 87 -236 63 -295 -49 -8 -16 -12 -31 -10 -33 2 -3 10 9 17 25 6 16 21 38 32 48 16 14 15 9 -5 -21 -47 -69 -48 -150 -2 -205 23 -27 24 -30 8 -42 -14 -12 -16 -12 -9 0 6 9 4 12 -5 9 -8 -3 -14 -9 -14 -14 0 -6 -18 -31 -41 -56 -40 -46 -40 -46 -55 -25 -28 42 -31 52 -7 24 l23 -28 40 40 c21 23 34 41 28 41 -7 0 -24 -16 -39 -35 l-27 -36 -29 36 c-28 33 -57 49 -42 23 5 -10 3 -10 -7 0 -8 7 -15 17 -15 23 -1 5 -2 14 -3 20 0 5 -6 7 -11 4 -6 -4 -7 -11 -4 -17 5 -7 2 -8 -5 -3 -9 5 -7 13 8 29 56 60 53 160 -7 229 -8 9 -12 17 -9 17 3 0 18 -16 33 -35 18 -24 29 -54 34 -93 7 -52 7 -53 9 -15 1 53 -10 82 -49 127 -30 33 -60 51 -44 24 4 -7 3 -8 -5 -4 -6 4 -9 12 -6 17 9 13 -40 29 -88 29 -23 -1 -59 -10 -80 -21z m29 -77 c-3 -5 17 -7 44 -4 42 4 52 1 74 -21 28 -28 35 -80 15 -120 -10 -21 -10 -21 5 -3 20 25 20 79 1 116 -9 17 -13 30 -11 30 3 0 12 -13 21 -30 23 -45 19 -94 -11 -127 -14 -15 -22 -22 -18 -14 6 11 3 12 -12 6 -24 -11 -84 -11 -108 0 -15 6 -17 5 -11 -5 5 -9 4 -11 -4 -6 -6 4 -18 21 -27 38 -20 39 -13 92 17 124 22 24 35 32 25 16z m471 1 c-3 -5 21 -8 53 -8 36 0 56 4 52 10 -3 6 -1 6 4 2 5 -5 9 -14 9 -20 0 -7 6 -12 13 -12 28 0 44 -71 23 -104 -6 -10 -8 -1 -4 26 3 22 1 48 -3 56 -6 10 -9 -8 -8 -49 0 -46 -4 -68 -15 -77 -12 -10 -13 -9 -6 2 6 11 4 13 -11 6 -24 -11 -84 -11 -108 0 -15 7 -18 5 -11 -6 4 -8 -2 -5 -14 7 -39 36 -37 149 1 141 7 -1 13 4 14 11 3 19 4 22 10 22 3 0 3 -3 1 -7z m-345 -281 c-9 -6 -5 -12 13 -20 33 -15 38 -15 30 1 -4 6 11 -6 33 -29 31 -32 43 -54 52 -97 6 -31 9 -69 7 -84 -3 -23 -5 -20 -7 12 -1 22 -6 54 -11 70 -5 20 -6 11 -2 -27 4 -42 2 -58 -7 -58 -9 0 -11 20 -10 68 4 105 -3 107 -10 2 l-6 -95 -2 101 -2 101 -30 -5 -30 -4 -2 -97 -2 -96 -6 100 -6 100 -2 -87 -2 -88 -70 0 -70 0 -2 88 -2 87 -6 -100 -6 -100 -2 98 c-2 96 -2 97 -27 97 -14 0 -28 -1 -31 -2 -4 -2 -7 -41 -7 -88 l0 -85 -7 80 c-7 88 -12 84 -13 -10 l0 -60 -6 50 -5 50 -6 -65 -7 -65 -1 63 c-2 70 17 120 64 162 15 14 24 19 20 13 -9 -16 -1 -16 27 -1 12 6 51 15 87 18 36 4 70 8 75 8 6 1 4 -2 -3 -6z m475 -17 c43 -18 46 -18 37 -2 -4 6 6 0 21 -15 27 -25 28 -29 26 -119 -1 -52 -5 -96 -7 -99 -3 -2 -4 40 -3 95 1 55 -1 99 -5 98 -3 -2 -17 -3 -31 -3 -25 0 -25 -1 -27 -97 l-2 -98 -6 100 -6 100 -2 -87 -2 -88 -70 0 -70 0 -2 88 -2 87 -6 -100 -6 -100 -2 98 c-2 106 3 97 -58 97 -4 0 -6 -44 -5 -97 1 -54 0 -95 -3 -93 -2 3 -6 47 -7 99 -2 90 -1 94 26 119 15 15 25 21 21 15 -9 -16 -6 -16 35 2 44 19 111 19 156 0z m-122 -335 c11 -33 63 -70 101 -70 27 0 34 -4 34 -20 0 -17 -7 -20 -46 -20 -33 0 -43 -3 -38 -12 4 -7 -7 0 -24 16 -19 17 -35 25 -44 21 -10 -6 -11 -5 -1 5 11 11 18 10 40 -10 l28 -24 -26 28 c-23 24 -29 26 -48 17 -12 -7 -19 -16 -16 -21 3 -6 -1 -7 -9 -4 -8 3 -17 17 -21 31 -3 14 -8 23 -10 21 -3 -2 -1 -19 5 -36 5 -18 5 -30 0 -27 -4 3 -11 23 -15 45 l-7 40 -92 0 -92 0 -10 -42 c-5 -23 -15 -43 -22 -44 -7 -1 -8 0 -2 3 5 2 10 12 9 21 0 10 -3 12 -6 5 -3 -10 -12 -9 -35 3 -30 15 -31 15 -57 -12 -19 -20 -20 -23 -3 -10 31 26 28 15 -5 -15 -14 -13 -23 -18 -19 -11 5 9 -5 12 -38 12 -39 0 -46 3 -46 20 0 16 7 20 34 20 38 0 90 37 101 70 6 19 17 20 190 20 173 0 184 -1 190 -20z m361 -44 c-23 -21 -36 -42 -35 -57 1 -20 2 -19 10 8 5 18 21 40 35 50 36 23 103 22 139 -2 17 -11 34 -20 38 -20 15 0 27 -30 27 -68 0 -42 -19 -85 -46 -108 -15 -12 -17 -12 -9 0 7 11 4 13 -11 5 -10 -5 -45 -9 -76 -8 -37 0 -55 -3 -51 -10 3 -6 -8 2 -26 19 -60 56 -60 148 0 199 44 37 47 32 5 -8z m-731 -115 c-3 -6 3 -15 14 -20 29 -16 38 -13 15 5 -19 15 -18 15 2 5 28 -13 24 -41 -11 -82 -75 -89 -75 -199 0 -288 35 -41 39 -69 11 -82 -20 -10 -21 -10 -2 5 23 18 14 21 -15 5 -11 -5 -17 -15 -13 -22 4 -7 -9 3 -29 22 -33 31 -35 36 -23 58 10 20 9 33 -3 73 -9 28 -22 50 -28 50 -8 0 -13 14 -13 35 0 21 5 35 13 35 6 0 19 22 28 50 12 40 13 53 3 72 -11 21 -9 27 19 56 31 32 44 41 32 23z m971 -216 c57 -29 61 -30 44 -10 -20 24 -5 18 16 -7 10 -12 13 -18 7 -14 -7 4 -13 3 -13 -3 0 -5 -10 -12 -22 -14 -13 -2 -6 -3 16 -2 35 2 39 0 52 -32 11 -24 14 -64 11 -136 l-3 -102 -4 110 -4 110 -6 -95 -7 -95 0 105 c-1 154 -6 154 -13 0 l-6 -135 -2 128 -2 127 -30 0 -30 0 -2 -127 -2 -128 -6 130 -6 130 -2 -117 -2 -118 -140 0 -140 0 0 107 c0 94 -3 111 -22 139 -13 18 -33 38 -46 43 -13 6 -93 11 -187 11 -103 0 -165 4 -165 10 0 6 118 10 333 10 l334 0 49 -25z"></path><path d="M1145 1203 c-67 -35 -114 -103 -116 -165 0 -32 -1 -32 -10 -8 -14 35 -88 130 -101 130 -6 0 8 -21 31 -46 59 -63 71 -97 72 -206 1 -127 17 -76 18 60 1 108 17 161 58 192 17 14 17 14 2 -5 -40 -49 -49 -82 -49 -190 l0 -105 144 0 c80 0 157 5 173 11 23 8 26 8 15 -3 -9 -9 -58 -14 -175 -17 -89 -2 -153 -7 -142 -11 33 -12 276 0 313 16 18 7 31 18 28 23 -4 5 -1 13 5 17 8 5 9 3 4 -6 -5 -8 -3 -11 6 -8 8 2 29 26 47 54 31 44 34 54 30 106 -3 46 -11 66 -35 95 -52 65 -94 83 -198 82 -62 0 -99 -5 -120 -16z m258 -160 l-1 -58 8 45 7 45 1 -42 c2 -34 -4 -48 -25 -71 -16 -15 -22 -21 -15 -12 6 9 12 26 12 38 0 18 -6 22 -30 22 -26 0 -30 -3 -30 -29 0 -16 6 -32 13 -34 6 -3 -39 -6 -100 -6 l-113 -1 -2 68 -2 67 -6 -80 -6 -80 -2 76 c-1 53 2 81 13 95 14 18 14 18 15 -8 l0 -28 126 0 126 0 -4 35 c-3 23 -1 32 6 25 5 -5 9 -35 9 -67z"></path></g></svg>