<svg xmlns="http://www.w3.org/2000/svg" width="150.000000pt" height="150.000000pt" viewBox="0 0 150.000000 150.000000" preserveAspectRatio="xMidYMid meet"><metadata>
Created by potrace 1.16, written by Peter Selinger 2001-2019
</metadata><g transform="translate(0.000000,150.000000) scale(0.100000,-0.100000)" fill="#000000" stroke="none"><path d="M166 1469 c-9 -48 -7 -180 4 -240 15 -78 62 -171 117 -231 l47 -53 -43 40 c-23 22 -54 59 -68 83 -29 49 -41 56 -17 10 19 -36 122 -148 136 -148 5 0 6 5 2 12 -4 7 -3 8 5 4 6 -4 9 -12 5 -17 -8 -13 110 -67 175 -79 30 -5 78 -10 107 -10 l54 0 0 -54 0 -55 -57 -16 c-72 -21 -115 -43 -108 -55 3 -5 0 -12 -6 -16 -8 -5 -9 -3 -4 6 5 8 3 11 -6 8 -8 -3 -14 -10 -14 -15 0 -6 -4 -15 -9 -20 -5 -5 -6 -3 -2 4 4 7 3 13 -3 13 -5 0 -37 -31 -71 -69 -49 -55 -70 -70 -99 -75 -49 -8 -144 -53 -137 -65 4 -5 1 -13 -5 -17 -8 -4 -9 -3 -5 4 13 21 -10 13 -30 -10 -19 -22 -19 -23 1 -8 11 7 -3 -11 -32 -41 -28 -29 -61 -70 -72 -89 -12 -19 -21 -30 -21 -25 0 16 28 55 74 104 23 24 34 41 26 39 -8 -2 -35 -31 -60 -64 -45 -59 -46 -62 -48 -141 -2 -48 1 -84 8 -88 15 -9 13 -28 -2 -19 -7 4 0 -7 17 -25 16 -17 35 -29 43 -26 7 2 10 0 7 -5 -3 -6 -1 -10 4 -10 14 0 1328 0 1342 0 5 0 7 4 4 10 -3 5 0 7 7 5 8 -3 27 9 43 26 17 18 24 29 18 25 -16 -9 -18 10 -3 19 7 4 10 40 8 88 -2 79 -3 82 -48 141 -25 33 -52 62 -60 64 -8 2 3 -15 26 -39 46 -49 74 -88 74 -104 0 -5 -9 6 -21 25 -11 19 -44 60 -72 89 -29 30 -43 48 -32 41 20 -15 20 -14 1 8 -20 23 -43 31 -30 10 4 -7 3 -8 -5 -4 -6 4 -9 12 -5 17 7 12 -88 57 -137 65 -29 5 -50 20 -99 75 -34 38 -66 69 -71 69 -6 0 -7 -6 -3 -12 4 -8 3 -10 -2 -5 -5 5 -9 14 -9 20 0 5 -6 12 -14 15 -9 3 -11 0 -6 -8 5 -9 4 -11 -4 -6 -6 4 -9 11 -6 16 7 12 -36 34 -108 55 l-57 16 0 53 0 53 88 6 c89 6 217 44 217 65 0 6 4 14 9 19 5 5 6 2 1 -6 -5 -9 -3 -12 6 -9 8 3 14 10 14 16 0 5 4 14 9 19 5 5 6 3 2 -4 -4 -7 -3 -13 2 -13 14 0 117 112 136 148 24 46 12 39 -17 -10 -14 -24 -45 -61 -68 -83 l-43 -40 47 53 c55 60 102 153 117 231 18 97 11 271 -12 271 -5 0 -7 -3 -5 -7 3 -5 -52 -5 -121 -1 -83 5 -139 3 -162 -4 -55 -17 -131 -58 -125 -67 2 -5 -3 -15 -13 -22 -15 -13 -16 -12 -3 4 7 9 9 17 3 17 -12 0 -132 -129 -132 -142 0 -6 17 12 38 39 21 26 47 55 58 63 10 8 -1 -7 -25 -35 -24 -27 -50 -65 -59 -82 -9 -18 -19 -33 -22 -33 -3 0 -13 15 -22 33 -9 17 -35 55 -59 82 -24 28 -35 43 -25 35 11 -8 37 -37 58 -63 21 -27 38 -45 38 -39 0 13 -120 142 -132 142 -6 0 -4 -8 3 -17 13 -16 12 -17 -3 -4 -10 7 -15 17 -13 22 6 9 -70 50 -125 67 -23 7 -79 9 -162 4 -69 -4 -124 -4 -121 1 2 4 0 7 -5 7 -5 0 -12 -14 -16 -31z m121 -330 c18 -36 43 -74 55 -85 18 -15 16 -11 -7 20 -52 70 -74 142 -75 234 l0 82 83 0 c64 0 95 -6 142 -25 69 -28 68 -28 60 -15 -10 16 1 11 16 -7 12 -15 12 -16 -1 -8 -13 8 -13 7 -1 -8 14 -18 36 -24 26 -7 -11 18 1 10 26 -17 13 -14 18 -23 12 -19 -18 10 -16 -4 3 -25 8 -9 26 -44 40 -76 13 -32 24 -51 24 -42 0 9 -13 43 -29 75 -19 37 -23 50 -11 36 35 -43 60 -128 58 -200 l-2 -67 -6 70 c-5 55 -7 61 -8 25 l-2 -44 -148 147 c-84 83 -157 147 -167 147 -26 0 -55 -29 -55 -54 0 -14 50 -70 148 -166 l147 -145 -142 145 c-90 91 -143 153 -143 166 0 26 19 44 45 43 17 -1 16 -2 -5 -8 -16 -4 -26 -15 -28 -30 -3 -19 26 -54 153 -181 l156 -157 -58 -2 c-32 -1 -70 2 -83 7 -17 7 -2 8 50 4 41 -2 72 -1 69 2 -4 4 -36 8 -70 10 -42 2 -79 10 -106 24 -48 25 -57 27 -47 10 4 -8 3 -10 -2 -5 -5 5 -9 12 -9 15 0 13 -16 32 -27 32 -6 0 -5 -7 3 -17 7 -10 -4 -2 -25 17 -20 19 -52 64 -69 100 -29 59 -32 73 -33 170 l-2 105 7 -105 c5 -91 10 -114 38 -171z m971 141 c-4 -90 -45 -185 -104 -240 -21 -19 -32 -27 -25 -17 8 10 9 17 3 17 -11 0 -27 -19 -27 -32 0 -3 -4 -10 -9 -15 -5 -5 -6 -3 -2 5 10 17 1 15 -47 -10 -27 -14 -64 -22 -106 -24 -34 -2 -66 -6 -70 -10 -3 -3 28 -4 69 -2 52 4 67 3 50 -4 -13 -5 -51 -8 -83 -7 l-58 2 156 157 c127 127 156 162 153 181 -2 15 -12 26 -28 30 -21 6 -22 7 -4 8 25 1 44 -17 44 -43 0 -13 -53 -75 -142 -166 l-143 -145 148 145 c89 88 147 152 147 164 0 26 -28 56 -53 56 -13 0 -76 -55 -169 -147 l-148 -147 0 42 c0 47 31 138 60 175 22 27 26 42 10 32 -19 -12 -10 1 17 26 15 13 21 16 14 7 -19 -26 2 -22 25 4 12 13 13 18 4 13 -13 -8 -13 -7 -1 8 15 18 26 23 16 7 -8 -13 -8 -13 60 16 33 14 49 23 36 20 -13 -3 -20 -2 -15 3 5 4 53 5 107 3 l97 -4 0 -81 c-1 -91 -24 -163 -75 -233 -23 -31 -25 -35 -7 -20 12 11 37 49 55 85 28 58 33 77 36 171 3 58 7 92 9 75 2 -16 2 -64 0 -105z m-394 -680 c36 -11 68 -25 71 -30 9 -15 27 -12 19 3 -4 6 -4 9 0 5 4 -3 8 -10 8 -15 0 -12 19 -33 30 -33 6 0 5 7 -2 15 -22 26 -4 16 21 -12 16 -18 17 -22 5 -13 -18 14 -19 13 -13 -2 4 -12 -1 -18 -23 -23 -40 -9 -60 -35 -64 -84 -2 -23 -9 -48 -16 -54 -10 -10 -10 -8 -2 8 13 25 5 72 -13 79 -20 7 -80 -36 -83 -61 -2 -13 7 -28 24 -42 35 -27 40 -27 75 9 23 22 29 35 24 51 -4 13 -3 19 2 16 6 -4 8 4 6 17 -3 13 0 27 6 31 8 4 10 -1 6 -17 -10 -40 14 -51 81 -39 32 6 80 8 106 5 54 -7 76 -22 25 -17 -19 2 -10 -3 23 -12 30 -9 70 -25 88 -35 39 -23 46 -25 36 -7 -18 31 72 -63 97 -102 32 -50 37 -97 13 -127 -15 -18 -15 -18 -5 3 26 52 -6 133 -75 193 -21 19 -19 14 8 -17 64 -73 86 -141 56 -171 -17 -17 -1279 -17 -1296 0 -30 30 -6 103 57 173 23 27 24 28 2 10 -37 -31 -81 -106 -81 -138 0 -15 5 -38 11 -50 10 -21 10 -21 -5 -3 -36 45 -3 130 80 206 21 19 32 27 25 18 -7 -10 -9 -18 -3 -18 13 0 33 25 26 33 -3 3 5 10 18 17 22 11 22 10 4 -4 -22 -18 -14 -21 14 -6 10 6 43 17 72 25 33 9 41 14 21 12 -47 -5 -30 9 19 16 26 4 49 14 58 26 41 55 49 62 27 26 -13 -22 -35 -46 -48 -52 -17 -9 -19 -13 -7 -13 9 0 27 14 40 31 13 17 42 52 65 78 24 26 40 50 37 53 -3 3 0 9 7 14 8 4 10 3 5 -4 -9 -15 6 -16 21 -1 19 19 127 48 179 48 29 1 81 -8 118 -19z"></path></g></svg>