<svg xmlns="http://www.w3.org/2000/svg" width="150.000000pt" height="150.000000pt" viewBox="0 0 150.000000 150.000000" preserveAspectRatio="xMidYMid meet"><metadata>
Created by potrace 1.16, written by Peter Selinger 2001-2019
</metadata><g transform="translate(0.000000,150.000000) scale(0.100000,-0.100000)" fill="#000000" stroke="none"><path d="M655 1462 c-97 -36 -206 -92 -201 -101 4 -5 1 -13 -5 -17 -8 -4 -9 -3 -5 4 15 25 -14 10 -39 -19 -35 -43 -65 -103 -64 -131 1 -19 2 -17 8 7 10 42 36 89 58 106 17 13 17 13 2 -6 -26 -32 -42 -67 -50 -110 -11 -60 7 -182 36 -240 20 -40 21 -45 5 -25 -24 30 -50 110 -51 159 -1 20 -5 47 -9 61 -11 34 -1 -83 12 -135 13 -54 42 -100 96 -157 47 -49 58 -73 40 -85 -7 -4 -8 -1 -3 7 5 8 3 11 -6 8 -8 -3 -14 -10 -14 -16 0 -5 -4 -14 -9 -19 -5 -5 -6 -3 -2 5 9 15 1 15 -25 1 -11 -5 -17 -14 -14 -19 3 -5 0 -12 -6 -16 -8 -5 -9 -3 -4 6 5 8 3 11 -6 8 -8 -3 -14 -10 -14 -15 0 -6 -4 -15 -9 -20 -5 -5 -6 -3 -2 5 9 15 1 15 -25 1 -11 -5 -17 -14 -14 -19 3 -5 0 -12 -6 -16 -8 -5 -9 -3 -4 6 5 8 3 11 -6 8 -8 -3 -14 -10 -14 -15 0 -6 -4 -15 -9 -20 -5 -5 -6 -3 -2 5 16 27 -14 9 -52 -32 -77 -84 -77 -82 -78 -351 l-1 -240 6 240 c6 237 6 241 33 285 14 25 39 56 54 70 26 23 25 22 -4 -13 -67 -78 -67 -79 -70 -339 l-3 -238 570 0 571 0 0 110 c0 97 3 114 21 139 38 52 30 107 -40 273 -33 80 -61 152 -61 158 0 7 -13 10 -32 8 -25 -2 -34 -8 -36 -25 -2 -13 -8 -23 -13 -23 -5 0 -8 5 -6 11 1 6 -4 14 -12 17 -9 3 -11 0 -6 -9 5 -8 4 -11 -1 -6 -5 5 -9 14 -9 20 0 5 -6 12 -14 15 -9 3 -11 0 -6 -8 5 -9 4 -11 -4 -6 -6 4 -9 11 -6 16 3 5 -3 14 -14 19 -26 14 -34 14 -25 -1 4 -8 3 -10 -2 -5 -5 5 -9 14 -9 19 0 6 -6 13 -14 16 -9 3 -11 0 -6 -9 5 -8 4 -11 -1 -6 -5 5 -9 14 -9 19 0 6 -6 13 -14 16 -9 3 -11 0 -6 -8 6 -9 3 -9 -14 -1 -25 14 -28 23 -4 14 10 -4 14 -2 9 5 -3 6 -1 14 5 18 8 4 9 3 5 -4 -17 -28 13 -8 55 36 50 51 79 91 79 106 0 6 -13 -10 -29 -35 -15 -24 -43 -57 -62 -74 -26 -23 -24 -19 9 18 62 69 83 125 89 233 6 107 -3 144 -54 205 -35 41 -35 42 -5 15 18 -17 42 -50 53 -74 19 -38 21 -56 16 -140 -2 -54 -8 -106 -12 -117 -6 -19 -6 -19 6 -1 17 28 24 195 10 239 -12 37 -95 137 -113 137 -5 0 -6 -6 -2 -12 4 -8 3 -10 -2 -5 -5 5 -9 13 -9 19 0 6 -45 31 -100 55 -121 55 -192 64 -270 35z m182 -82 c17 -11 16 -11 -2 -5 -11 4 -42 8 -70 10 l-50 4 50 -9 c74 -13 242 -88 265 -118 11 -14 23 -37 26 -51 3 -14 10 -37 15 -51 6 -19 7 -15 2 15 -8 54 -26 88 -65 120 -18 15 -24 22 -13 17 25 -12 58 -49 76 -82 25 -49 3 -254 -30 -274 -4 -3 -8 30 -10 72 -1 42 -5 79 -7 82 -3 2 -4 -37 -3 -88 1 -51 -1 -95 -5 -99 -3 -3 -6 36 -6 88 0 72 -4 100 -17 119 -16 24 -16 25 3 10 11 -8 9 -5 -4 8 -13 12 -31 22 -40 21 -14 0 -13 -2 3 -9 14 -6 4 -9 -37 -9 -63 -1 -60 -6 -72 99 -2 19 -3 7 -2 -27 0 -33 -2 -59 -6 -56 -5 2 -8 29 -8 60 0 55 0 55 -27 49 l-28 -6 25 15 c44 26 15 16 -116 -39 -219 -91 -211 -84 -215 -209 -2 -47 -6 -84 -10 -81 -33 20 -55 225 -30 274 18 33 51 70 76 82 11 5 5 -2 -13 -17 -39 -32 -57 -66 -65 -120 l-6 -40 10 35 c24 82 41 104 113 139 38 18 92 42 120 53 37 14 42 18 19 14 -18 -3 -33 -3 -33 -1 0 2 15 9 33 14 39 12 129 7 154 -9z m-92 -200 c-10 -16 79 -100 106 -99 l24 1 -25 8 c-21 7 -17 8 21 9 25 1 51 -5 58 -11 11 -11 12 -10 6 1 -5 9 -4 12 3 7 8 -5 12 -39 12 -95 0 -73 -4 -95 -25 -137 -14 -28 -39 -63 -57 -80 -18 -16 -26 -20 -18 -10 17 22 11 20 -47 -14 -24 -14 -43 -30 -43 -37 0 -7 -7 -10 -16 -6 -13 5 -13 8 -2 15 9 7 7 8 -10 5 -12 -3 -20 -1 -17 3 3 5 -3 14 -14 19 -26 14 -34 14 -25 -1 4 -8 3 -10 -2 -5 -5 5 -9 14 -9 20 0 5 -6 12 -14 15 -9 3 -11 0 -6 -9 5 -8 -4 -3 -18 10 -15 14 -38 47 -52 75 -22 43 -25 62 -23 140 l1 91 6 -100 c5 -86 10 -107 34 -148 16 -27 31 -46 34 -43 4 3 -1 14 -10 24 -33 36 -47 90 -47 179 l0 88 85 34 c89 36 104 45 58 36 l-28 -6 30 15 c37 18 37 18 30 6z m-307 -521 c-2 -6 3 -14 11 -17 8 -3 11 0 7 7 -11 17 0 13 15 -6 12 -15 12 -16 -1 -8 -13 8 -13 7 -1 -8 14 -18 36 -24 26 -7 -10 16 1 11 16 -7 12 -15 12 -16 -1 -8 -13 8 -13 7 -1 -8 14 -18 36 -24 26 -7 -10 16 1 11 16 -7 12 -15 12 -16 -1 -8 -13 8 -13 7 -1 -8 15 -19 36 -23 25 -5 -4 7 -3 8 5 4 6 -4 9 -11 6 -16 -3 -5 0 -12 6 -16 6 -3 14 -1 18 5 4 6 25 -26 48 -74 l41 -85 -49 0 -49 0 -2 -142 -2 -143 -6 140 -6 140 -2 -127 -2 -128 -55 0 -55 0 0 130 0 130 -25 0 -25 0 -2 -142 -2 -143 -6 145 -6 145 -2 -132 -2 -133 -70 0 -70 0 0 168 c0 183 7 225 48 274 22 28 23 30 3 13 -50 -44 -56 -67 -62 -280 l-5 -200 -2 180 c-1 104 3 196 9 219 6 21 29 57 51 80 22 22 37 35 33 29 -8 -16 0 -16 26 -2 11 5 17 14 14 19 -3 5 0 12 6 16 8 4 9 3 5 -4 -10 -17 6 -14 29 5 l20 16 -20 -7 c-20 -6 -20 -6 -1 9 24 18 27 18 24 4z m592 -14 c-12 -15 0 -22 14 -7 4 4 18 7 31 7 14 1 22 -1 20 -4 -3 -2 0 -10 5 -16 8 -9 -1 -40 -30 -106 -22 -51 -38 -94 -36 -96 8 -9 88 196 81 208 -5 8 -4 10 3 5 7 -4 12 -11 12 -17 0 -5 -44 -109 -97 -231 -53 -123 -96 -233 -95 -245 1 -13 -3 -23 -9 -23 -6 0 -9 12 -8 28 1 15 0 74 -2 132 l-3 105 -6 -145 -6 -145 -2 143 -2 142 -42 1 -43 2 40 7 c39 7 39 7 8 9 -18 0 -33 3 -33 6 0 20 57 115 83 138 18 16 26 26 20 22 -18 -9 -16 0 4 16 11 10 14 10 9 2 -4 -7 -3 -13 2 -13 12 0 33 25 27 32 -3 3 3 11 12 19 16 13 17 12 4 -3 -16 -22 1 -24 19 -3 7 8 9 15 5 15 -4 0 -2 7 5 15 7 8 15 15 17 15 3 0 0 -7 -7 -15z m231 -141 c52 -129 54 -157 13 -201 -14 -15 -23 -22 -19 -16 3 7 1 13 -4 13 -6 0 -11 12 -11 26 0 25 -42 75 -82 99 -16 9 -15 16 13 79 16 38 28 71 26 73 -2 2 -19 -31 -37 -74 -17 -43 -28 -79 -22 -81 5 -1 18 -10 28 -18 15 -12 13 -12 -14 1 -24 12 -32 21 -27 33 3 9 22 56 42 105 42 99 36 101 94 -39z m-176 -166 c-4 -16 -3 -19 3 -9 6 8 17 11 32 6 17 -5 21 -4 15 6 -4 8 0 7 10 -3 19 -18 14 -68 -6 -68 -8 0 -8 5 1 15 6 8 10 22 7 32 -4 14 -5 13 -6 -4 -1 -17 -7 -23 -23 -23 -19 0 -20 -2 -8 -10 10 -6 11 -10 3 -10 -8 0 -13 -13 -13 -30 l0 -30 73 -2 72 -2 -75 -6 -75 -6 73 -2 72 -2 0 -35 0 -35 -125 0 c-80 0 -125 4 -125 10 0 14 92 230 97 230 2 0 1 -10 -2 -22z m-270 -128 l0 -90 -65 0 -65 0 0 90 0 90 65 0 65 0 0 -90z"></path></g></svg>